<mxfile host="Electron" modified="2024-03-29T16:31:03.312Z" agent="Mozilla/5.0 (Windows NT 10.0; Win64; x64) AppleWebKit/537.36 (KHTML, like Gecko) draw.io/24.1.0 Chrome/120.0.6099.109 Electron/28.1.0 Safari/537.36" etag="MwraMHk0UCtgmAfXz8lr" version="24.1.0" type="device">
  <diagram name="Page-1" id="WlfilPQd5d-5fEVRfKd8">
    <mxGraphModel dx="1567" dy="1103" grid="1" gridSize="10" guides="1" tooltips="1" connect="1" arrows="1" fold="1" page="1" pageScale="1" pageWidth="850" pageHeight="1100" math="0" shadow="0">
      <root>
        <mxCell id="0" />
        <mxCell id="1" parent="0" />
        <mxCell id="BkTTONXbZkQGhHakUlqU-27" value="" style="rounded=0;whiteSpace=wrap;html=1;fillColor=#647687;strokeColor=#314354;fontColor=#ffffff;" vertex="1" parent="1">
          <mxGeometry x="40" y="680" width="760" height="280" as="geometry" />
        </mxCell>
        <mxCell id="BkTTONXbZkQGhHakUlqU-28" value="" style="rounded=1;whiteSpace=wrap;html=1;" vertex="1" parent="1">
          <mxGeometry x="70" y="720" width="340" height="220" as="geometry" />
        </mxCell>
        <mxCell id="BkTTONXbZkQGhHakUlqU-29" value="" style="rounded=1;whiteSpace=wrap;html=1;fillColor=#f5f5f5;strokeColor=#666666;gradientColor=#b3b3b3;" vertex="1" parent="1">
          <mxGeometry x="440" y="718" width="330" height="220" as="geometry" />
        </mxCell>
        <mxCell id="BkTTONXbZkQGhHakUlqU-30" value="&lt;b&gt;Active - instinct&lt;/b&gt;" style="rounded=0;whiteSpace=wrap;html=1;strokeColor=none;align=center;" vertex="1" parent="1">
          <mxGeometry x="80" y="730" width="290" height="20" as="geometry" />
        </mxCell>
        <mxCell id="BkTTONXbZkQGhHakUlqU-31" value="&lt;b&gt;Inactive - terminal state&lt;/b&gt;" style="rounded=0;whiteSpace=wrap;html=1;strokeColor=none;" vertex="1" parent="1">
          <mxGeometry x="450" y="730" width="300" height="20" as="geometry" />
        </mxCell>
        <mxCell id="BkTTONXbZkQGhHakUlqU-32" value="&lt;b&gt;&lt;font style=&quot;font-size: 16px;&quot;&gt;Un-Conscious&amp;nbsp;&lt;/font&gt;&lt;/b&gt;" style="rounded=0;whiteSpace=wrap;html=1;strokeColor=none;" vertex="1" parent="1">
          <mxGeometry x="50" y="690" width="140" height="20" as="geometry" />
        </mxCell>
        <mxCell id="BkTTONXbZkQGhHakUlqU-33" value="&lt;span style=&quot;font-size: 14px;&quot;&gt;fight &amp;amp; flight&lt;/span&gt;" style="rounded=0;whiteSpace=wrap;html=1;align=center;" vertex="1" parent="1">
          <mxGeometry x="110" y="770" width="90" height="130" as="geometry" />
        </mxCell>
        <mxCell id="BkTTONXbZkQGhHakUlqU-34" value="&lt;font style=&quot;font-size: 14px;&quot;&gt;near-death&lt;/font&gt;" style="rounded=0;whiteSpace=wrap;html=1;align=center;fillColor=#f5f5f5;gradientColor=#b3b3b3;strokeColor=#666666;" vertex="1" parent="1">
          <mxGeometry x="470" y="770" width="90" height="130" as="geometry" />
        </mxCell>
        <mxCell id="BkTTONXbZkQGhHakUlqU-35" value="&lt;div style=&quot;font-size: 14px;&quot;&gt;dying&lt;/div&gt;" style="rounded=0;whiteSpace=wrap;html=1;align=center;" vertex="1" parent="1">
          <mxGeometry x="230" y="770" width="90" height="130" as="geometry" />
        </mxCell>
        <mxCell id="BkTTONXbZkQGhHakUlqU-36" value="&lt;span style=&quot;font-size: 14px;&quot;&gt;dead&lt;/span&gt;" style="rounded=0;whiteSpace=wrap;html=1;align=center;fillColor=#f5f5f5;gradientColor=#b3b3b3;strokeColor=#666666;" vertex="1" parent="1">
          <mxGeometry x="590" y="770" width="90" height="130" as="geometry" />
        </mxCell>
        <mxCell id="BkTTONXbZkQGhHakUlqU-16" value="" style="rounded=0;whiteSpace=wrap;html=1;fillColor=#d0cee2;strokeColor=#56517e;" vertex="1" parent="1">
          <mxGeometry x="40" y="400" width="760" height="280" as="geometry" />
        </mxCell>
        <mxCell id="BkTTONXbZkQGhHakUlqU-17" value="" style="rounded=1;whiteSpace=wrap;html=1;" vertex="1" parent="1">
          <mxGeometry x="70" y="440" width="340" height="220" as="geometry" />
        </mxCell>
        <mxCell id="BkTTONXbZkQGhHakUlqU-18" value="" style="rounded=1;whiteSpace=wrap;html=1;fillColor=#bac8d3;strokeColor=#23445d;" vertex="1" parent="1">
          <mxGeometry x="440" y="438" width="330" height="220" as="geometry" />
        </mxCell>
        <mxCell id="BkTTONXbZkQGhHakUlqU-19" value="&lt;b&gt;Active - auto-pilot&lt;/b&gt;" style="rounded=0;whiteSpace=wrap;html=1;strokeColor=none;align=center;" vertex="1" parent="1">
          <mxGeometry x="80" y="450" width="280" height="20" as="geometry" />
        </mxCell>
        <mxCell id="BkTTONXbZkQGhHakUlqU-20" value="&lt;b&gt;Inactive - rest and refresh&lt;/b&gt;" style="rounded=0;whiteSpace=wrap;html=1;strokeColor=none;align=center;" vertex="1" parent="1">
          <mxGeometry x="450" y="450" width="300" height="20" as="geometry" />
        </mxCell>
        <mxCell id="BkTTONXbZkQGhHakUlqU-21" value="&lt;b&gt;&lt;font style=&quot;font-size: 16px;&quot;&gt;Sub-Conscious&amp;nbsp;&lt;/font&gt;&lt;/b&gt;" style="rounded=0;whiteSpace=wrap;html=1;strokeColor=none;" vertex="1" parent="1">
          <mxGeometry x="50" y="410" width="150" height="20" as="geometry" />
        </mxCell>
        <mxCell id="BkTTONXbZkQGhHakUlqU-22" value="&lt;span style=&quot;font-size: 14px;&quot;&gt;breath&lt;/span&gt;&lt;div&gt;&lt;span style=&quot;font-size: 14px;&quot;&gt;eat&lt;/span&gt;&lt;/div&gt;&lt;div&gt;&lt;span style=&quot;font-size: 14px;&quot;&gt;drink&lt;/span&gt;&lt;/div&gt;&lt;div&gt;&lt;span style=&quot;font-size: 14px;&quot;&gt;walk&lt;/span&gt;&lt;/div&gt;" style="rounded=0;whiteSpace=wrap;html=1;align=center;" vertex="1" parent="1">
          <mxGeometry x="110" y="490" width="90" height="130" as="geometry" />
        </mxCell>
        <mxCell id="BkTTONXbZkQGhHakUlqU-23" value="&lt;font style=&quot;font-size: 14px;&quot;&gt;sleep&lt;/font&gt;" style="rounded=0;whiteSpace=wrap;html=1;align=center;fillColor=#f5f5f5;gradientColor=#b3b3b3;strokeColor=#666666;" vertex="1" parent="1">
          <mxGeometry x="470" y="490" width="90" height="130" as="geometry" />
        </mxCell>
        <mxCell id="BkTTONXbZkQGhHakUlqU-24" value="&lt;div style=&quot;font-size: 14px;&quot;&gt;reproduce&lt;/div&gt;&lt;div style=&quot;font-size: 14px;&quot;&gt;give birth&lt;/div&gt;" style="rounded=0;whiteSpace=wrap;html=1;align=center;" vertex="1" parent="1">
          <mxGeometry x="230" y="490" width="90" height="130" as="geometry" />
        </mxCell>
        <mxCell id="BkTTONXbZkQGhHakUlqU-25" value="" style="rounded=0;whiteSpace=wrap;html=1;align=center;fillColor=#f5f5f5;gradientColor=#b3b3b3;strokeColor=#666666;" vertex="1" parent="1">
          <mxGeometry x="590" y="490" width="90" height="130" as="geometry" />
        </mxCell>
        <mxCell id="BkTTONXbZkQGhHakUlqU-37" value="&lt;b&gt;&lt;font style=&quot;font-size: 20px;&quot;&gt;Human mental and muscle states (3x2)&lt;/font&gt;&lt;/b&gt;" style="rounded=1;whiteSpace=wrap;html=1;fillColor=#d5e8d4;strokeColor=#82b366;" vertex="1" parent="1">
          <mxGeometry x="200" y="40" width="440" height="40" as="geometry" />
        </mxCell>
        <mxCell id="BkTTONXbZkQGhHakUlqU-1" value="" style="rounded=0;whiteSpace=wrap;html=1;fillColor=#fff2cc;strokeColor=#d6b656;gradientColor=#ffd966;" vertex="1" parent="1">
          <mxGeometry x="40" y="120" width="760" height="280" as="geometry" />
        </mxCell>
        <mxCell id="BkTTONXbZkQGhHakUlqU-3" value="" style="rounded=1;whiteSpace=wrap;html=1;" vertex="1" parent="1">
          <mxGeometry x="70" y="160" width="340" height="220" as="geometry" />
        </mxCell>
        <mxCell id="BkTTONXbZkQGhHakUlqU-4" value="" style="rounded=1;whiteSpace=wrap;html=1;fillColor=#ffe6cc;strokeColor=#d79b00;" vertex="1" parent="1">
          <mxGeometry x="440" y="158" width="330" height="220" as="geometry" />
        </mxCell>
        <mxCell id="BkTTONXbZkQGhHakUlqU-5" value="&lt;b&gt;Active - 5 perceptions with muscle&lt;/b&gt;" style="rounded=0;whiteSpace=wrap;html=1;strokeColor=none;" vertex="1" parent="1">
          <mxGeometry x="80" y="170" width="280" height="20" as="geometry" />
        </mxCell>
        <mxCell id="BkTTONXbZkQGhHakUlqU-6" value="&lt;b&gt;Inactive - perception-shutdown and muscle relaxed&lt;/b&gt;" style="rounded=0;whiteSpace=wrap;html=1;strokeColor=none;" vertex="1" parent="1">
          <mxGeometry x="450" y="170" width="300" height="20" as="geometry" />
        </mxCell>
        <mxCell id="BkTTONXbZkQGhHakUlqU-9" value="&lt;b&gt;&lt;font style=&quot;font-size: 16px;&quot;&gt;Conscious&amp;nbsp;&lt;/font&gt;&lt;/b&gt;" style="rounded=0;whiteSpace=wrap;html=1;strokeColor=none;" vertex="1" parent="1">
          <mxGeometry x="50" y="130" width="90" height="20" as="geometry" />
        </mxCell>
        <mxCell id="BkTTONXbZkQGhHakUlqU-10" value="&lt;font style=&quot;font-size: 14px;&quot;&gt;work&lt;/font&gt;&lt;div style=&quot;font-size: 14px;&quot;&gt;&lt;font style=&quot;font-size: 14px;&quot;&gt;drive&lt;/font&gt;&lt;/div&gt;&lt;div style=&quot;font-size: 14px;&quot;&gt;&lt;font style=&quot;font-size: 14px;&quot;&gt;build&lt;/font&gt;&lt;/div&gt;&lt;div style=&quot;font-size: 14px;&quot;&gt;&lt;font style=&quot;font-size: 14px;&quot;&gt;watch&lt;/font&gt;&lt;/div&gt;&lt;div style=&quot;font-size: 14px;&quot;&gt;&lt;font style=&quot;font-size: 14px;&quot;&gt;speak&lt;/font&gt;&lt;/div&gt;" style="rounded=0;whiteSpace=wrap;html=1;align=center;" vertex="1" parent="1">
          <mxGeometry x="110" y="210" width="90" height="130" as="geometry" />
        </mxCell>
        <mxCell id="BkTTONXbZkQGhHakUlqU-11" value="&lt;font style=&quot;font-size: 14px;&quot;&gt;meditate&lt;/font&gt;" style="rounded=0;whiteSpace=wrap;html=1;align=center;fillColor=#f5f5f5;gradientColor=#b3b3b3;strokeColor=#666666;" vertex="1" parent="1">
          <mxGeometry x="470" y="210" width="90" height="130" as="geometry" />
        </mxCell>
        <mxCell id="BkTTONXbZkQGhHakUlqU-12" value="&lt;div style=&quot;font-size: 14px;&quot;&gt;&lt;font style=&quot;font-size: 14px;&quot;&gt;sing&lt;/font&gt;&lt;/div&gt;&lt;div style=&quot;font-size: 14px;&quot;&gt;&lt;font style=&quot;font-size: 14px;&quot;&gt;read&lt;/font&gt;&lt;/div&gt;&lt;div style=&quot;font-size: 14px;&quot;&gt;&lt;font style=&quot;font-size: 14px;&quot;&gt;write&lt;/font&gt;&lt;/div&gt;&lt;div style=&quot;font-size: 14px;&quot;&gt;&lt;font style=&quot;font-size: 14px;&quot;&gt;run&lt;/font&gt;&lt;/div&gt;" style="rounded=0;whiteSpace=wrap;html=1;align=center;" vertex="1" parent="1">
          <mxGeometry x="230" y="210" width="90" height="130" as="geometry" />
        </mxCell>
        <mxCell id="BkTTONXbZkQGhHakUlqU-13" value="" style="rounded=0;whiteSpace=wrap;html=1;align=center;fillColor=#f5f5f5;gradientColor=#b3b3b3;strokeColor=#666666;" vertex="1" parent="1">
          <mxGeometry x="590" y="210" width="90" height="130" as="geometry" />
        </mxCell>
      </root>
    </mxGraphModel>
  </diagram>
</mxfile>
